<?xml version="1.0" standalone="no"?>
<!DOCTYPE svg PUBLIC "-//W3C//DTD SVG 20010904//EN"
 "http://www.w3.org/TR/2001/REC-SVG-20010904/DTD/svg10.dtd">
<svg version="1.0" xmlns="http://www.w3.org/2000/svg"
 viewBox="0 0 2600.000000 2600.000000"
 preserveAspectRatio="xMidYMid meet">
<metadata>
Created by potrace 1.15, written by Peter Selinger 2001-2017
</metadata>
<g transform="translate(0.000000,2600.000000) scale(0.100000,-0.100000)"
fill="#73a3bf" stroke="none">
<path d="M6575 22594 c-466 -68 -833 -310 -1064 -700 -102 -173 -157 -358
-200 -679 -179 -1321 -231 -2607 -146 -3655 43 -519 114 -987 218 -1425 l14
-60 -54 -120 c-412 -910 -676 -2019 -720 -3022 -3 -84 -7 -153 -9 -153 -1 0
-247 74 -546 165 -299 91 -578 171 -620 177 -219 33 -466 -80 -591 -270 -77
-117 -106 -215 -107 -352 0 -242 141 -464 361 -564 41 -18 405 -133 809 -256
404 -122 738 -225 742 -229 4 -3 21 -103 38 -221 64 -443 148 -809 299 -1297
l19 -63 -46 -14 c-1001 -300 -1821 -555 -1882 -584 -94 -46 -211 -158 -263
-253 -100 -179 -101 -419 -5 -602 49 -93 174 -213 268 -259 137 -66 283 -85
416 -53 33 8 498 147 1032 309 534 163 973 296 976 296 2 0 32 -51 67 -112
425 -766 1025 -1479 1731 -2060 942 -775 2116 -1341 3418 -1646 559 -131 1048
-203 1740 -254 234 -17 1144 -17 1380 0 245 18 557 49 740 73 1439 188 2739
661 3830 1393 812 545 1509 1243 2047 2051 71 106 223 358 282 467 24 43 46
80 51 83 4 2 437 -126 961 -286 525 -159 988 -299 1029 -309 279 -72 587 68
709 322 43 89 71 205 71 290 -1 222 -143 450 -340 546 -61 30 -341 119 -1003
320 -504 153 -920 281 -923 285 -3 3 11 56 31 119 122 377 231 867 289 1297
l22 163 754 229 c472 143 783 243 829 266 54 26 96 57 151 112 207 204 247
512 100 762 -43 72 -150 179 -221 221 -68 40 -188 77 -272 84 -105 9 -162 -5
-756 -186 -289 -88 -526 -159 -527 -157 -1 1 -7 88 -13 192 -64 1071 -317
2109 -735 3019 l-36 79 39 176 c91 406 157 859 195 1356 53 679 46 1587 -19
2405 -36 446 -109 1098 -156 1380 -53 320 -181 573 -403 796 -217 216 -464
343 -771 396 -100 17 -146 19 -280 15 -88 -3 -194 -13 -235 -22 -169 -37 -365
-117 -496 -204 -33 -22 -628 -495 -1323 -1050 -695 -556 -1266 -1011 -1268
-1011 -3 0 -96 29 -206 64 -448 144 -832 238 -1258 310 -1054 178 -2112 178
-3156 1 -448 -76 -810 -165 -1250 -307 l-222 -71 -1261 1009 c-693 555 -1286
1026 -1318 1047 -82 55 -239 133 -328 163 -154 51 -238 65 -424 69 -96 2 -188
1 -205 -1z m229 -1258 c18 -7 666 -521 1440 -1141 1492 -1194 1462 -1172 1616
-1211 106 -27 251 -16 370 29 295 109 443 161 595 207 604 183 1225 292 1890
331 258 15 888 6 1125 -15 814 -75 1420 -216 2230 -517 112 -42 118 -43 240
-43 143 -1 224 18 320 76 30 19 685 538 1455 1154 771 616 1416 1126 1434
1132 49 17 71 15 128 -14 74 -36 87 -69 117 -294 171 -1261 215 -2555 121
-3540 -43 -440 -107 -818 -209 -1215 -69 -267 -64 -364 28 -565 24 -52 73
-159 109 -236 167 -360 321 -800 426 -1219 132 -527 219 -1234 209 -1704 l-3
-154 -600 -182 c-350 -107 -626 -196 -661 -214 -34 -18 -89 -57 -123 -88 -270
-243 -281 -652 -25 -907 142 -142 342 -208 532 -176 39 6 223 58 409 115 186
56 339 102 340 101 5 -4 -68 -334 -106 -481 -59 -225 -95 -330 -112 -328 -8 2
-126 37 -264 79 -231 70 -257 76 -345 77 -116 1 -179 -13 -290 -65 -69 -33
-100 -56 -165 -122 -92 -94 -134 -168 -166 -296 -39 -154 -11 -329 75 -468 43
-69 77 -106 149 -165 73 -59 133 -86 317 -142 85 -26 159 -51 164 -56 5 -4
-12 -42 -39 -86 -716 -1157 -1830 -2039 -3255 -2576 -1164 -439 -2565 -623
-3900 -512 -2406 199 -4411 1270 -5503 2941 -146 224 -151 233 -135 239 7 2
81 25 163 49 204 62 281 101 370 190 128 127 187 267 187 446 0 175 -59 319
-181 441 -104 104 -222 161 -372 180 -109 13 -178 1 -459 -85 -134 -41 -246
-74 -247 -72 -25 25 -217 798 -201 810 2 2 147 -41 323 -95 176 -54 356 -106
400 -115 297 -62 610 122 709 419 97 290 -43 621 -318 755 -33 16 -279 96
-546 176 -267 81 -536 163 -599 183 l-114 35 7 232 c21 716 122 1351 315 1988
103 337 263 743 406 1027 79 157 99 229 99 356 0 98 -4 127 -41 265 -273 1022
-333 2373 -177 4010 28 301 100 886 115 943 13 50 55 95 104 112 51 18 78 18
119 1z"/>
<path d="M10273 13929 c-266 -26 -508 -194 -628 -437 -154 -313 -86 -691 170
-930 161 -151 353 -220 583 -209 216 10 389 90 539 251 358 383 246 1008 -222
1241 -143 71 -288 99 -442 84z"/>
<path d="M15866 13928 c-334 -38 -604 -283 -680 -615 -20 -90 -21 -256 -1
-343 54 -235 206 -430 420 -538 122 -61 195 -77 355 -77 124 0 156 3 220 23
154 49 296 142 390 255 64 78 134 218 160 321 25 99 27 258 4 359 -91 400
-461 662 -868 615z"/>
<path d="M12925 11184 c-277 -43 -501 -147 -660 -308 -137 -138 -189 -254
-187 -416 2 -277 237 -590 565 -751 37 -18 67 -36 67 -40 0 -4 -17 -28 -38
-53 -21 -25 -58 -83 -81 -128 -68 -129 -147 -243 -216 -312 -163 -162 -372
-249 -600 -250 -126 0 -199 16 -301 64 -114 55 -170 109 -230 222 -143 272
-425 405 -714 336 -167 -39 -332 -172 -409 -328 -41 -85 -71 -202 -71 -281 0
-132 87 -348 211 -524 80 -112 258 -293 368 -374 516 -379 1198 -474 1831
-256 203 70 447 205 615 340 33 26 65 52 72 57 8 6 37 -11 90 -53 282 -225
604 -369 968 -434 122 -22 404 -30 534 -16 641 70 1198 437 1441 948 68 141
75 173 75 318 -1 118 -4 137 -29 205 -52 136 -127 233 -242 309 -110 74 -210
104 -349 104 -94 0 -121 -3 -190 -27 -104 -36 -177 -81 -249 -154 -67 -69 -85
-94 -132 -185 -88 -172 -276 -270 -519 -271 -138 0 -240 22 -360 78 -105 50
-193 114 -265 192 -66 73 -96 118 -176 261 -36 65 -84 140 -106 166 -22 27
-39 49 -37 50 2 1 31 15 64 31 155 73 344 231 432 361 241 357 173 691 -190
932 -247 164 -642 240 -982 187z"/>
</g>
</svg>
